<svg width="275" height="72" viewBox="0 0 275 72" fill="none" xmlns="http://www.w3.org/2000/svg">
<g clip-path="url(#clip0_192_2148)">
<path d="M0 69.4818V2.70996H15.1946V55.1599H40.6464V69.4818H0Z" fill="#5D04BA"/>
<path d="M43.9303 7.8384C43.9303 3.48288 47.2218 0 51.7687 0C56.3155 0 59.7066 3.48288 59.7066 7.8384C59.7066 12.1939 56.3232 15.6768 51.7687 15.6768C47.2141 15.6768 43.9303 12.3853 43.9303 7.8384ZM44.512 69.4816V21.1958H58.9334V69.4816H44.512Z" fill="#5D04BA"/>
<path d="M66.0906 69.4816V21.1958H79.8307V25.4518C82.7319 22.0684 87.3783 20.2236 92.9892 20.2236C104.892 20.2236 113.121 29.0265 113.121 42.1926V69.4816H98.6996V43.647C98.6996 37.5538 95.5075 33.8719 89.8967 33.8719C84.2858 33.8719 80.512 37.6457 80.512 43.647V69.4816H66.0906Z" fill="#5D04BA"/>
<path d="M119.804 69.4818V2.70996H134.225V41.5116L150.866 21.1884H167.997L151.065 41.7029L169.061 69.4742H152.42L141.482 52.542L134.225 60.6713V69.4742H119.804V69.4818Z" fill="#5D04BA"/>
<path d="M170.99 7.8384C170.99 3.48288 174.282 0 178.829 0C183.376 0 186.767 3.48288 186.767 7.8384C186.767 12.1939 183.383 15.6768 178.829 15.6768C174.274 15.6768 170.99 12.3853 170.99 7.8384ZM171.572 69.4816V21.1958H185.994V69.4816H171.572Z" fill="#5D04BA"/>
<path d="M261.4 71.3342V58.9565H274.688V71.3342H261.4Z" fill="#FFB119"/>
<path d="M218.289 72.0002C191.781 72.5207 191.589 39.33 192.776 21.196H205.023C204.074 36.6814 203.393 70.5458 227.551 56.8209C217.493 45.7063 216.299 16.4348 234.287 15.9908C250.653 15.654 251.556 43.5553 244.169 55.466C247.912 57.64 252.635 58.9872 258.445 58.9872V71.2347C248.93 71.2347 241.819 68.6092 236.606 65.2564C231.531 69.6502 225.232 72.0002 218.296 72.0002H218.289ZM234.31 28.2383C231.792 28.2842 231.922 41.5728 234.999 45.6604C237.709 39.0391 235.986 28.2307 234.31 28.2383Z" fill="#FFB119"/>
</g>
<defs>
<clipPath id="clip0_192_2148">
<rect width="274.689" height="72" fill="accent"/>
</clipPath>
</defs>
</svg>
