<svg width="1821" height="1808" viewBox="0 0 1821 1808" fill="none" xmlns="http://www.w3.org/2000/svg">
<path d="M1670.22 1454.55C1670.22 1522.47 1725.29 1577.53 1793.22 1577.53V1736.4C1793.22 1761.58 1772.8 1782 1747.61 1782H1237.63C1212.44 1782 1191.98 1761.58 1191.98 1736.4V1577.53C1259.95 1577.53 1315.02 1522.47 1315.02 1454.55C1315.02 1386.62 1259.95 1331.53 1191.98 1331.53V1172.69C1191.98 1147.51 1212.44 1127.06 1237.63 1127.06H1376.94C1372.21 1113.97 1369.6 1099.82 1369.6 1085.05C1369.6 1017.12 1424.67 962.064 1492.6 962.064C1560.53 962.064 1615.64 1017.12 1615.64 1085.05C1615.64 1099.82 1613.03 1113.97 1608.27 1127.06H1747.61C1772.8 1127.06 1793.22 1147.51 1793.22 1172.69V1331.53C1725.29 1331.53 1670.22 1386.58 1670.22 1454.55Z" fill="#E0FA15"/>
<path d="M535.753 591.575C493.19 533.218 411.399 520.425 353.035 562.983L253.465 426.51C237.7 404.883 242.43 374.531 264.06 358.769L702.157 39.2696C723.787 23.5073 754.178 28.1993 769.943 49.8634L869.513 186.336C811.113 228.931 798.318 310.712 840.881 369.069C883.481 427.464 965.272 440.257 1023.67 397.662L1123.21 534.098C1138.97 555.725 1134.24 586.113 1112.61 601.912L992.95 689.192C1005.23 697.476 1016.3 707.997 1025.58 720.68C1068.14 779.037 1055.35 860.818 996.983 903.377C938.582 945.972 856.792 933.179 814.229 874.821C804.954 862.138 798.355 848.355 794.249 834.132L674.551 921.448C652.921 937.211 622.566 932.445 606.765 910.818L507.231 774.382C565.595 731.824 578.39 650.006 535.79 591.649L535.753 591.575Z" fill="#E0FA15"/>
<path d="M789.886 1596.04C721.953 1596.04 666.889 1651.1 666.889 1719.02H508.001C482.815 1719.02 462.395 1698.61 462.395 1673.42V1163.49C462.395 1138.31 482.815 1117.85 508.001 1117.85H666.889C666.889 1185.82 721.953 1240.87 789.886 1240.87C857.818 1240.87 912.92 1185.82 912.92 1117.85H1071.77C1096.96 1117.85 1117.41 1138.31 1117.41 1163.49V1302.79C1130.5 1298.06 1144.65 1295.46 1159.43 1295.46C1227.36 1295.46 1282.42 1350.51 1282.42 1418.44C1282.42 1486.36 1227.36 1541.46 1159.43 1541.46C1144.65 1541.46 1130.5 1538.86 1117.41 1534.09V1673.42C1117.41 1698.61 1096.96 1719.02 1071.77 1719.02H912.92C912.92 1651.1 857.855 1596.04 789.886 1596.04Z" stroke="#0A174E" stroke-width="24" stroke-linecap="round" stroke-linejoin="round"/>
<path d="M1526.44 850.371V725.739L1596.5 833.253L1695.89 749.382L1668.17 887.028L1764.33 946.485L1661.68 970.935" stroke="#0A174E" stroke-width="24" stroke-linecap="round" stroke-linejoin="round"/>
<path d="M181.94 434.648L52.6738 440.11" stroke="#0A174E" stroke-width="24" stroke-linecap="round" stroke-linejoin="round"/>
<path d="M158.037 353.197L42.8848 298.909" stroke="#0A174E" stroke-width="24" stroke-linecap="round" stroke-linejoin="round"/>
<path d="M208.005 307.596L181.939 211.996" stroke="#0A174E" stroke-width="24" stroke-linecap="round" stroke-linejoin="round"/>
<path d="M1637.63 1418.29C1637.63 1486.22 1692.7 1541.28 1760.63 1541.28V1700.15C1760.63 1725.33 1740.21 1745.75 1715.02 1745.75H1205.03C1179.85 1745.75 1159.39 1725.33 1159.39 1700.15V1541.28C1227.36 1541.28 1282.42 1486.22 1282.42 1418.29C1282.42 1350.37 1227.36 1295.27 1159.39 1295.27V1136.44C1159.39 1111.26 1179.85 1090.8 1205.03 1090.8H1344.34C1339.62 1077.72 1337.01 1063.57 1337.01 1048.79C1337.01 980.869 1392.08 925.811 1460.01 925.811C1527.94 925.811 1583.04 980.869 1583.04 1048.79C1583.04 1063.57 1580.44 1077.72 1575.67 1090.8H1715.02C1740.21 1090.8 1760.63 1111.26 1760.63 1136.44V1295.27C1692.7 1295.27 1637.63 1350.33 1637.63 1418.29Z" stroke="#0A174E" stroke-width="24" stroke-linecap="round" stroke-linejoin="round"/>
<path d="M586.456 602.316C543.893 543.958 462.103 531.165 403.739 573.724L304.168 437.251C288.403 415.624 293.133 385.272 314.763 369.509L752.86 49.9735C774.49 34.2111 804.882 38.9032 820.646 60.5672L920.217 197.04C861.816 239.635 849.021 321.416 891.584 379.773C934.148 438.131 1015.97 450.961 1074.38 408.365L1173.91 544.802C1189.67 566.429 1184.94 596.817 1163.31 612.616L1043.65 699.896C1055.94 708.18 1067.01 718.701 1076.28 731.384C1118.85 789.741 1106.05 871.522 1047.69 914.081C989.286 956.676 907.495 943.882 864.932 885.525C855.657 872.842 849.058 859.059 844.952 844.836L725.254 932.152C703.624 947.915 673.269 943.149 657.468 921.522L557.934 785.086C616.298 742.528 629.093 660.71 586.493 602.352L586.456 602.316Z" stroke="#0A174E" stroke-width="24" stroke-linecap="round" stroke-linejoin="round"/>
<path d="M683.826 450.594C683.826 450.594 651.784 432.669 621.099 453.16C590.414 473.651 612.19 508.438 635.983 526.033C659.74 543.629 724.226 572.514 787.723 563.606C787.723 563.606 828.38 490.44 788.969 423.908C776.211 402.354 741.053 357.193 703.476 382.303C665.862 407.412 681.919 447.735 681.919 447.735" fill="#DA27A7"/>
</svg>
