<svg width="1777" height="1782" viewBox="0 0 1777 1782" fill="none" xmlns="http://www.w3.org/2000/svg">
<path d="M122.797 1282.85L178.112 1487.41" stroke="#0A174E" stroke-width="24" stroke-linecap="round" stroke-linejoin="round"/>
<path d="M60.6328 1408.62L104.848 1509.52" stroke="#0A174E" stroke-width="24" stroke-linecap="round" stroke-linejoin="round"/>
<path d="M538.789 159.121V334.568C538.789 355.934 556.233 373.194 577.594 372.961L1262.84 365.497C1284.2 365.263 1301.27 347.63 1300.8 326.265L1295.58 88.8668C1295.11 68.0146 1278.09 51.3142 1257.19 51.3142H574.702" stroke="#0A174E" stroke-width="24" stroke-linecap="round" stroke-linejoin="round"/>
<path d="M698.387 284.56C698.387 284.56 770.26 255.544 773.711 185.71C777.162 115.877 724.645 112.471 725.345 181.559C726.044 250.646 828.28 272.478 866.992 208.009C866.992 208.009 897.821 254.145 939.751 219.438C955.189 206.656 975.617 200.638 995.02 205.816C1002.58 207.822 1010.36 211.461 1017.64 217.479C1046.65 241.689 1128.18 298.322 1190.4 221.63" stroke="#0A174E" stroke-width="24" stroke-linecap="round" stroke-linejoin="round"/>
<path d="M146.029 473.07L588.506 463.88C607.582 463.507 623.86 477.641 626.098 496.581L688.27 1019.33C688.69 1022.78 689.576 1026.14 690.929 1029.31C696.712 1043.08 710.191 1052.03 725.116 1052.03H1105.1C1115.82 1052.03 1125.99 1047.41 1133.03 1039.34L1133.55 1038.74C1138.3 1033.28 1141.34 1026.61 1142.36 1019.43L1214.98 496.534C1217.59 477.641 1234.15 463.786 1253.23 464.579L1697.76 482.819C1719.54 483.706 1735.81 503.065 1733.02 524.71L1587.08 1641.91C1584.65 1660.53 1568.65 1674.43 1549.91 1674.19L286.463 1660.39C267.947 1660.2 252.369 1646.34 250.083 1627.92L109.976 514.774C107.224 492.942 124.014 473.49 145.982 473.07H146.029Z" fill="#E0FA15"/>
<path d="M630.805 1142.63L647.176 1723.22C647.596 1738.52 660.142 1750.7 675.44 1750.7H1238.11C1253.45 1750.7 1266 1738.48 1266.37 1723.13L1281.49 1142.53C1281.91 1126.62 1269.13 1113.52 1253.22 1113.52H659.069C643.118 1113.52 630.339 1126.67 630.805 1142.63Z" fill="#DA27A7"/>
<path d="M707.396 1689.21L692.191 1175.05H1144.09L1117.83 1689.21" stroke="#0A174E" stroke-width="24" stroke-linecap="round" stroke-linejoin="round"/>
<path d="M918.125 1622.88V1175.05" stroke="#0A174E" stroke-width="24" stroke-linecap="round" stroke-linejoin="round"/>
<path d="M582.454 1081.1L598.825 1661.69C599.244 1676.99 611.791 1689.17 627.089 1689.17H1189.76C1205.1 1689.17 1217.65 1676.95 1218.02 1661.6L1233.13 1081C1233.55 1065.09 1220.77 1051.99 1204.87 1051.99H610.718C594.767 1051.99 581.987 1065.14 582.454 1081.1Z" stroke="#0A174E" stroke-width="24" stroke-linecap="round" stroke-linejoin="round"/>
<path d="M611.316 372.588L692.191 1052.03" stroke="#0A174E" stroke-width="24" stroke-linecap="round" stroke-linejoin="round"/>
<path d="M1233.18 365.823L1137.84 1052.03" stroke="#0A174E" stroke-width="24" stroke-linecap="round" stroke-linejoin="round"/>
<path d="M616.267 414.059L150.469 432.625L301.77 1608.19H597.331" stroke="#0A174E" stroke-width="24" stroke-linecap="round" stroke-linejoin="round"/>
<path d="M1226.46 414.059L1642.96 424.321" stroke="#0A174E" stroke-width="24" stroke-linecap="round" stroke-linejoin="round"/>
<path d="M1642.95 617.169L1531.01 1622.88L1218.75 1633.1" stroke="#0A174E" stroke-width="24" stroke-linecap="round" stroke-linejoin="round"/>
<path d="M318.375 735.331H582.453" stroke="#0A174E" stroke-width="24" stroke-linecap="round" stroke-linejoin="round"/>
<path d="M326.664 969.604H598.205" stroke="#0A174E" stroke-width="24" stroke-linecap="round" stroke-linejoin="round"/>
<path d="M383.379 1218.43H494.57" stroke="#0A174E" stroke-width="24" stroke-linecap="round" stroke-linejoin="round"/>
<path d="M1233.16 735.331H1520.66" stroke="#0A174E" stroke-width="24" stroke-linecap="round" stroke-linejoin="round"/>
<path d="M1233.16 969.604H1499.9" stroke="#0A174E" stroke-width="24" stroke-linecap="round" stroke-linejoin="round"/>
<path d="M1325.81 1218.43H1475.06" stroke="#0A174E" stroke-width="24" stroke-linecap="round" stroke-linejoin="round"/>
<path d="M262.406 353.834L462.447 284.56" stroke="#0A174E" stroke-width="24" stroke-linecap="round" stroke-linejoin="round"/>
<path d="M383.379 98.8494L450.401 192.148" stroke="#0A174E" stroke-width="24" stroke-linecap="round" stroke-linejoin="round"/>
<path d="M305.914 235.672H405.445" stroke="#0A174E" stroke-width="24" stroke-linecap="round" stroke-linejoin="round"/>
<path d="M919.795 641.1C962.014 641.1 996.239 590.933 996.239 529.048C996.239 467.164 962.014 416.997 919.795 416.997C877.577 416.997 843.352 467.164 843.352 529.048C843.352 590.933 877.577 641.1 919.795 641.1Z" fill="#0A174E"/>
<path d="M919.794 916.237C950.55 916.237 975.483 879.687 975.483 834.601C975.483 789.514 950.55 752.965 919.794 752.965C889.038 752.965 864.105 789.514 864.105 834.601C864.105 879.687 889.038 916.237 919.794 916.237Z" fill="#0A174E"/>
<path d="M846.525 1458.3C860.975 1458.3 872.69 1446.58 872.69 1432.13C872.69 1417.68 860.975 1405.96 846.525 1405.96C832.074 1405.96 820.359 1417.68 820.359 1432.13C820.359 1446.58 832.074 1458.3 846.525 1458.3Z" fill="#0A174E"/>
<path d="M982.349 1458.3C996.8 1458.3 1008.51 1446.58 1008.51 1432.13C1008.51 1417.68 996.8 1405.96 982.349 1405.96C967.898 1405.96 956.184 1417.68 956.184 1432.13C956.184 1446.58 967.898 1458.3 982.349 1458.3Z" fill="#0A174E"/>
</svg>
