<svg width="1776" height="1672" viewBox="0 0 1776 1672" fill="none" xmlns="http://www.w3.org/2000/svg">
<g clip-path="url(#clip0_26_5)">
<path d="M204.5 936L357.5 1318.5L368 1314L380.5 1244L410 1140L422.5 1108L444.5 1072L471.5 1045L495.5 1033H517.5L544.5 1045L589.5 1072L621 1080L641 1072L649 1045L654.5 989.5L662.5 941.5L670 882L698 844L737.5 814H789.5L833.5 828.5L894.5 867.5L901 862.5L855.5 695.5L789.5 493L773 483C745.833 493.167 690.7 513.9 687.5 515.5C683.5 517.5 580.5 552 577.5 554.5C575.1 556.5 564.5 576.333 559.5 586L521 631.5L483.5 662L384.5 651.5V631.5L303 668L127 733L204.5 936Z" fill="#E0FA15"/>
<path d="M1091.5 598.5L1102.5 413H1255L1276 439.5L1295.5 458.5L1354.5 439.5V413L1568 434V458.5L1558.5 554.5L1543.5 679L1530.5 773.5L1497 941.5L1486 969.5L1354.5 959L1063 941.5H1011L1041 855L1091.5 598.5Z" fill="#E0FA15"/>
<path d="M474.788 196.092L384.271 653.255L489.321 659.97L546.321 201.676L474.788 196.092Z" stroke="#0A174E" stroke-width="24" stroke-linecap="round" stroke-linejoin="round"/>
<path d="M16.6201 154.719C16.6201 154.719 221.315 312.213 443.409 354.566" stroke="#0A174E" stroke-width="24" stroke-linecap="round" stroke-linejoin="round"/>
<path d="M411.602 515.279L33.0386 663.013C14.4323 670.282 5.25485 691.257 12.5717 709.844C46.7671 796.814 140.804 1036.98 219.831 1248.49C257.295 1348.79 321.411 1520.22 357.342 1609.43C368.656 1637.52 403.933 1646.65 427.467 1627.59C484.644 1581.26 592.762 1503.97 740.959 1443.36C908.189 1374.95 1042.71 1340.9 1101.85 1327.72C1119.4 1323.8 1129.98 1305.86 1124.9 1288.63L1072.03 1109.36" stroke="#0A174E" stroke-width="24" stroke-linecap="round" stroke-linejoin="round"/>
<path d="M546.321 201.676L583.006 433.061C583.006 433.061 540.538 459.897 541.092 476.647C541.645 493.398 583.006 522.472 583.006 535.902C583.006 549.333 521.354 649.91 489.321 659.97" stroke="#0A174E" stroke-width="24" stroke-linecap="round" stroke-linejoin="round"/>
<path d="M389.878 625.061C389.878 625.061 152.421 725.563 124.109 727.801L376.627 1367.51C384.648 1387.83 408.736 1396.43 427.795 1385.77C481.275 1355.81 589.041 1298.14 712.672 1246.46C840.126 1193.21 923.326 1159.16 959.759 1144.35C972.532 1139.14 980.88 1126.72 980.88 1112.93V1107.53" stroke="#0A174E" stroke-width="24" stroke-linecap="round" stroke-linejoin="round"/>
<path d="M415.021 1525.53C415.021 1525.53 467.924 1481.19 450.399 1427.92C432.874 1374.65 413.639 1518.08 488.391 1483.8C533.096 1463.31 515.571 1428.65 515.571 1428.65C515.571 1428.65 555.047 1477.47 586.35 1406.29" stroke="#0A174E" stroke-width="24" stroke-linecap="round" stroke-linejoin="round"/>
<path d="M1308.45 146.168L1283.13 456.929C1283.13 456.929 1333.04 456.175 1353.16 437.563C1353.16 431.602 1369.55 152.154 1369.55 152.154L1308.45 146.193V146.168Z" stroke="#0A174E" stroke-width="24" stroke-linecap="round" stroke-linejoin="round"/>
<path d="M548.434 215.056H630.025C638.523 215.056 645.312 222.098 645.01 230.599L637.744 430.823" stroke="#0A174E" stroke-width="24" stroke-linecap="round" stroke-linejoin="round"/>
<path d="M542.55 470.46C542.55 470.46 731.404 407.684 811.034 371.669C828.232 363.897 848.347 372.876 853.979 390.884L980.578 797.142" stroke="#0A174E" stroke-width="24" stroke-linecap="round" stroke-linejoin="round"/>
<path d="M1308.45 146.168C1308.45 146.168 1235.06 268.576 1235.06 280.296C1235.06 292.017 1255.17 297.625 1255.17 307.132C1255.17 316.639 1222.21 323.908 1222.21 336.76C1222.21 349.611 1283.11 456.929 1283.11 456.929" stroke="#0A174E" stroke-width="24" stroke-linecap="round" stroke-linejoin="round"/>
<path d="M575.891 388.092C575.891 388.092 661.455 404.063 738.268 401.246" stroke="#0A174E" stroke-width="24" stroke-linecap="round" stroke-linejoin="round"/>
<path d="M1247.53 315.608H1042.48C1042.48 315.608 995.186 800.914 924.658 1083.46C921.741 1095.13 930.416 1106.47 942.46 1106.72L1507.69 1118.16C1519.03 1118.39 1529.14 1111.07 1532.43 1100.18C1556.64 1019.95 1619.68 917.16 1651.16 331.604L1359.54 323.908" stroke="#0A174E" stroke-width="24" stroke-linecap="round" stroke-linejoin="round"/>
<path d="M574.005 557.431C574.005 557.431 763.664 473.73 779.856 475.968C796.049 478.207 942.058 1007.73 942.058 1007.73" stroke="#0A174E" stroke-width="24" stroke-linecap="round" stroke-linejoin="round"/>
<path d="M364.005 1335.62C364.005 1335.62 397.496 1104.15 461.562 1046.79C525.628 989.418 589.694 1100.94 635.883 1076.46C682.072 1051.99 619.49 889.444 713.351 828.756C807.212 768.067 908.541 887.835 908.541 887.835" stroke="#0A174E" stroke-width="24" stroke-linecap="round" stroke-linejoin="round"/>
<path d="M519.694 1076.46C519.694 1076.46 465.309 1113.84 457.112 1208.48" stroke="#0A174E" stroke-width="24" stroke-linecap="round" stroke-linejoin="round"/>
<path d="M444.439 1272.59C444.439 1272.59 439.587 1258.33 450.021 1236.72" stroke="#0A174E" stroke-width="24" stroke-linecap="round" stroke-linejoin="round"/>
<path d="M857.299 401.573C857.299 401.573 973.463 411.91 1036.3 375.039" stroke="#0A174E" stroke-width="24" stroke-linecap="round" stroke-linejoin="round"/>
<path d="M1708.34 33.7703C1708.34 33.7703 1534.44 212.591 1362.69 269.608" stroke="#0A174E" stroke-width="24" stroke-linecap="round" stroke-linejoin="round"/>
<path d="M1196.13 315.608L1186.45 161.384L1236.74 151.676L1253.64 241.162" stroke="#0A174E" stroke-width="24" stroke-linecap="round" stroke-linejoin="round"/>
<path d="M1260.5 416.135L1101.54 406.93C1101.54 406.93 1097.82 665.503 1009.92 942.738L1492.68 965.097C1492.68 965.097 1564.19 679.034 1568.66 430.823L1354.19 418.122" stroke="#0A174E" stroke-width="24" stroke-linecap="round" stroke-linejoin="round"/>
<path d="M1331.36 1002.55C1331.36 1002.55 1322.78 1049.13 1352.58 1047.26C1382.37 1045.4 1377.55 1026.82 1396.91 1024.93C1416.27 1023.04 1412.92 1044.65 1442.34 1043.54C1471.76 1042.44 1480.71 1020.81 1480.71 1020.81" stroke="#0A174E" stroke-width="24" stroke-linecap="round" stroke-linejoin="round"/>
<path d="M1628.61 277.455L1642.03 215.232" stroke="#0A174E" stroke-width="24" stroke-linecap="round" stroke-linejoin="round"/>
<path d="M1660.29 306.151L1726.94 272.978" stroke="#0A174E" stroke-width="24" stroke-linecap="round" stroke-linejoin="round"/>
<path d="M1236.74 625.061C1236.74 625.061 1134.03 608.512 1126.16 692.892C1118.29 777.273 1216.07 721.388 1216.07 721.388C1216.07 721.388 1159.65 831.497 1254.07 835.974C1348.48 840.451 1332.29 739.295 1332.29 739.295C1332.29 739.295 1354.64 796.865 1414.99 789.596C1475.33 782.328 1509.98 644.829 1390.95 653.783C1390.95 653.783 1436.76 631.977 1437.89 587.285C1439.02 542.592 1342.35 497.145 1316.65 583.009C1316.65 583.009 1307.14 519.655 1257.99 521.315C1208.83 522.975 1180.32 585.725 1236.77 625.061H1236.74Z" fill="#DA27A7" stroke="#0A174E" stroke-width="24" stroke-linecap="round" stroke-linejoin="round"/>
<path d="M1349.23 895.606C1349.23 895.606 1377.92 822.191 1332.29 739.295" stroke="#0A174E" stroke-width="24" stroke-linecap="round" stroke-linejoin="round"/>
<path d="M364.005 948.045C417.079 948.045 460.104 905.008 460.104 851.92C460.104 798.831 417.079 755.794 364.005 755.794C310.931 755.794 267.906 798.831 267.906 851.92C267.906 905.008 310.931 948.045 364.005 948.045Z" fill="#DA27A7" stroke="#0A174E" stroke-width="24" stroke-linecap="round" stroke-linejoin="round"/>
<path d="M1302.79 704.839C1324.43 704.839 1341.97 687.295 1341.97 665.654C1341.97 644.013 1324.43 626.469 1302.79 626.469C1281.16 626.469 1263.62 644.013 1263.62 665.654C1263.62 687.295 1281.16 704.839 1302.79 704.839Z" fill="#0A174E"/>
</g>
<defs>
<clipPath id="clip0_26_5">
<rect width="1776" height="1672" fill="white"/>
</clipPath>
</defs>
</svg>
