<svg width="1732" height="1782" viewBox="0 0 1732 1782" fill="none" xmlns="http://www.w3.org/2000/svg">
<path d="M1224.38 637.468C1224.38 711.142 1178.91 774.226 1114.49 800.15C1101.85 805.238 1087.38 799.62 1081.21 787.487C1059.38 744.457 1038.28 698.364 1018.52 649.946C998.758 601.551 981.599 553.87 967.112 507.87C962.989 494.792 969.507 480.656 982.175 475.43C1005 466.013 1030.24 461.271 1056.71 462.399C1149.94 466.359 1224.36 544.177 1224.38 637.468Z" fill="#E0FA15"/>
<path d="M1229.72 1139.14C1226.45 1137.35 1050.55 1041.16 838.268 1028.31C624.003 1015.35 427.794 1151.09 353.078 1155.19C278.34 1159.29 159.61 1078.46 158.574 891.184C157.56 703.936 387.879 762.254 607.949 563.747C767.837 419.553 834.445 189.297 834.445 189.297C822.607 267.875 839.167 391.372 881.43 532.136C897.23 584.768 916.623 639.839 939.494 695.855C962.364 751.893 987.009 804.824 1012.55 853.495C1084.78 991.197 1164.05 1094.92 1229.72 1139.14Z" fill="#E0FA15"/>
<path d="M1257.11 1069.25H1257.15C1288.94 1090.66 1317.54 1098.09 1340.6 1088.7C1421.28 1055.8 1406.08 828.17 1310.22 564.738" stroke="#0A174E" stroke-width="24" stroke-linecap="round" stroke-linejoin="round"/>
<path d="M861.83 119.399C868.555 74.6183 884.54 44.4118 910.22 33.9362C988.759 1.91085 1131.46 165.284 1245.8 409.469" stroke="#0A174E" stroke-width="24" stroke-linecap="round" stroke-linejoin="round"/>
<path d="M1172.74 613.524C1172.74 695.648 1116.22 764.579 1039.94 783.597C1014.39 734.925 989.751 681.995 966.88 625.956C944.009 569.941 924.616 514.869 908.816 462.238C934.796 446.974 965.083 438.248 997.397 438.248C1094.22 438.248 1172.74 516.734 1172.74 613.524Z" stroke="#0A174E" stroke-width="24" stroke-linecap="round" stroke-linejoin="round"/>
<path d="M1257.1 1069.25C1253.83 1067.45 1077.94 971.259 865.653 958.412C651.387 945.45 455.178 1081.2 380.463 1085.29C305.724 1089.39 186.995 1008.56 185.958 821.286C184.945 634.038 415.264 692.356 635.334 493.849C795.222 349.655 861.83 119.399 861.83 119.399C849.992 197.977 866.551 321.474 908.815 462.238C924.615 514.869 944.008 569.941 966.878 625.957C989.749 681.995 1014.39 734.926 1039.94 783.597C1112.16 921.299 1191.44 1025.02 1257.1 1069.25Z" stroke="#0A174E" stroke-width="24" stroke-linecap="round" stroke-linejoin="round"/>
<path d="M1257.11 1069.25H1257.15" stroke="#0A174E" stroke-width="24" stroke-linecap="round" stroke-linejoin="round"/>
<path d="M1433.78 730.551L1559.35 822.644L1592.79 761.932L1704.01 852.666" stroke="#0A174E" stroke-width="24" stroke-linecap="round" stroke-linejoin="round"/>
<path d="M443.205 1478L411.305 1616.76C410.177 1621.67 411.835 1626.78 415.635 1630.09L563.04 1758.7C567.508 1762.59 573.98 1763.17 579.07 1760.1L689.001 1693.64C696.855 1688.89 697.868 1677.91 691.028 1671.79L465.592 1470.89C457.853 1463.98 445.554 1467.92 443.228 1478H443.205Z" fill="#DA27A7"/>
<path d="M357.248 878.936C357.248 878.936 293.91 921.437 206.158 941.789" stroke="#0A174E" stroke-width="24" stroke-linecap="round" stroke-linejoin="round"/>
<path d="M373.625 979.202C373.625 979.202 328.828 1018.5 265.582 1035.36" stroke="#0A174E" stroke-width="24" stroke-linecap="round" stroke-linejoin="round"/>
<path d="M862.293 1214.48C862.293 1214.48 883.298 1228.38 883.298 1267.27C883.298 1306.16 841.932 1326.12 818.394 1336.34C794.855 1346.56 710.904 1363.46 704.777 1421.78" stroke="#0A174E" stroke-width="24" stroke-linecap="round" stroke-linejoin="round"/>
<path d="M448.502 1065.59C448.502 1065.59 550.556 1173.24 564.813 1272.93" stroke="#0A174E" stroke-width="24" stroke-linecap="round" stroke-linejoin="round"/>
<path d="M629.322 1057.48L594.475 1006.55" stroke="#0A174E" stroke-width="24" stroke-linecap="round" stroke-linejoin="round"/>
<path d="M541.09 1199.51C541.09 1199.51 487.518 1251.8 539.939 1309.4" stroke="#0A174E" stroke-width="24" stroke-linecap="round" stroke-linejoin="round"/>
<path d="M875.717 1294.28C881.659 1297.13 898.012 1305.95 908.791 1325.43C910.218 1328 922.057 1350.01 917.335 1371.98C910.794 1402.32 876.638 1413.81 833.914 1438.49C807.45 1453.78 771.843 1477.52 733.08 1514.22" stroke="#0A174E" stroke-width="24" stroke-linecap="round" stroke-linejoin="round"/>
<path d="M759.247 1127.56C736.538 1133.87 715.21 1142.78 695.242 1153.79L629.324 1057.48C641.854 1051.38 690.912 1030.2 725.759 1054.42C761.458 1079.19 760.03 1118.84 759.247 1127.56Z" fill="#0A174E" stroke="#0A174E" stroke-width="24" stroke-linecap="round" stroke-linejoin="round"/>
<path d="M398.707 634.314C398.707 634.314 381.134 762.807 524.438 952.104" stroke="#0A174E" stroke-width="24" stroke-linecap="round" stroke-linejoin="round"/>
<path d="M27.6387 254.913L295.154 409.468" stroke="#0A174E" stroke-width="24" stroke-linecap="round" stroke-linejoin="round"/>
<path d="M295.154 219.688L373.624 332.179" stroke="#0A174E" stroke-width="24" stroke-linecap="round" stroke-linejoin="round"/>
<path d="M426.18 160.771L438.456 295.849" stroke="#0A174E" stroke-width="24" stroke-linecap="round" stroke-linejoin="round"/>
<path d="M1522.16 66.6292L1444.35 200.348L1392.69 144.402L1305.15 268.566" stroke="#0A174E" stroke-width="24" stroke-linecap="round" stroke-linejoin="round"/>
<path d="M759.247 1127.56C773.688 1123.51 788.682 1120.54 804.251 1118.72C892.279 1108.48 918.904 1227.19 821.133 1222.58C723.386 1217.98 656.34 1287.55 646.598 1350.5" stroke="#0A174E" stroke-width="24" stroke-linecap="round" stroke-linejoin="round"/>
<path d="M426.18 1593.85C426.18 1593.85 491.176 1265.91 695.239 1153.79" stroke="#0A174E" stroke-width="24" stroke-linecap="round" stroke-linejoin="round"/>
<path d="M608.389 1749.21C617.97 1725.64 634.714 1691.08 663.665 1655.76C720.784 1586.09 802.363 1541.57 834.954 1524.09C895.597 1491.58 944.24 1476.27 945.438 1445.17C945.898 1433.4 939.403 1423.48 933.899 1416.99" stroke="#0A174E" stroke-width="24" stroke-linecap="round" stroke-linejoin="round"/>
</svg>
