<svg width="1616" height="1782" viewBox="0 0 1616 1782" fill="none" xmlns="http://www.w3.org/2000/svg">
<path d="M333.791 1039.7C333.791 1039.7 268.839 1141.35 270.152 1187.49C271.466 1233.63 338.087 1327.22 367.112 1364.15C396.138 1401.08 548.478 1573.12 530.671 1739.4" stroke="#0A174E" stroke-width="24" stroke-linecap="round" stroke-linejoin="round"/>
<path d="M801.19 1078.34L1004.53 979.522C913.508 635.424 600.57 133.461 600.57 133.461L28.9375 420.361C242.623 786.193 423.656 1258.59 423.656 1258.59L608.828 1169.85L612.211 1144.46L613.925 1108.87L610.675 1080.1C610.675 1080.1 609.162 1060.95 608.583 1058.7C608.004 1056.45 606.023 1032.96 606.023 1032.96L604.843 1019.19L602.751 974.027L603.508 932.202L605.689 902.769L610.23 879.031L618.488 853.402L628.171 833.224L639.59 816.338L654.169 801.322L672.221 789.375L685.977 783.769L702.36 779.72L721.057 777.806L734.635 778.852L750.016 783.012L767.757 792.111L780.756 801.633L795.514 817.54L804.106 831.378L813.321 854.715L818.418 879.031L820.644 909.821V944.06L818.307 981.858L813.098 1018.7L808.958 1039.66L802.414 1071.31L801.145 1078.32L801.19 1078.34Z" fill="#E0FA15"/>
<path d="M1432.05 422.541C1407.9 505.123 1318.76 779.609 1112.1 1125.89C1093.56 1156.92 1074.09 1188.56 1053.63 1220.68C1049.76 1226.78 1043.99 1231.05 1037.54 1233.16C1030.59 1235.48 1022.82 1235.25 1015.7 1232.07L1000.27 1225.2L795.848 1133.94L796.828 1112.65V1112.6L797.874 1101.41L797.941 1100.79L797.985 1100.52L801.146 1078.72L801.191 1078.37H801.213L888.067 1036.14L954.021 1004.08L1004.55 979.522L1001.1 966.819L988.411 923.948L1004.55 916.229L1017.21 905.661L1025.67 886.595L1025.41 872.023L1020.51 857.496L1003.75 813.424L989.056 775.07L974.744 737.984L952.24 680.431L931.606 628.372L915.334 588.082L890.071 527.236L868.835 478.515L853.566 446.145L834.445 408.993L814.457 371.528L800.923 346.612L783.984 315.777L842.013 166.543C848.268 150.414 866.743 142.805 882.547 149.835L1415.27 386.367C1429.16 392.53 1436.33 407.969 1432.05 422.541Z" fill="#DA27A7"/>
<path d="M950.303 1349.83C904.783 1349.83 877.538 1313.96 877.538 1313.96C848.824 1265.33 820.911 1240.35 814.412 1229.07C803.082 1209.4 795.247 1183.97 795.803 1136.25C795.803 1135.47 795.826 1134.7 795.848 1133.94L1000.27 1225.2C1048.78 1282.02 995.8 1349.83 950.303 1349.83Z" stroke="#0A174E" stroke-width="24" stroke-linecap="round" stroke-linejoin="round"/>
<path d="M877.533 1313.96C900.438 1352.74 923.81 1406.49 937.276 1480.33C957.799 1593.01 941.55 1686.87 927.371 1739.4" stroke="#0A174E" stroke-width="24" stroke-linecap="round" stroke-linejoin="round"/>
<path d="M795.845 1133.94C795.978 1126.4 796.312 1119.32 796.824 1112.65V1112.6C797.136 1108.76 797.47 1105.04 797.87 1101.41L797.937 1100.79L797.982 1100.52C798.85 1092.89 799.918 1085.68 801.142 1078.72L801.187 1078.37C809.311 1031.82 823.424 995.228 820.508 903.881C818.037 826.016 783.758 799.275 756.157 785.726C728.534 772.155 701.934 779.808 693.52 781.744C622.648 798.096 606.911 884.036 604.841 910.8C595.069 1038.48 622.514 1084.06 608.803 1169.87C604.529 1196.61 594.535 1238.19 566.934 1287.53" stroke="#0A174E" stroke-width="24" stroke-linecap="round" stroke-linejoin="round"/>
<path d="M985.318 765.326C1000.85 805.638 1014.3 841.033 1023.56 865.527C1031.1 885.527 1022.07 907.952 1002.75 917.14L815.26 1006.26" stroke="#0A174E" stroke-width="24" stroke-linecap="round" stroke-linejoin="round"/>
<path d="M121.441 303.696L603.771 65.4511C620.71 57.0861 641.233 63.3154 650.648 79.6893C694.32 155.73 811.224 360.493 854.829 448.726C864.312 467.903 876.064 494.243 888.975 524.655" stroke="#0A174E" stroke-width="24" stroke-linecap="round" stroke-linejoin="round"/>
<path d="M64.707 359.715C64.707 359.715 226.953 644.479 284.336 786.861" stroke="#0A174E" stroke-width="24" stroke-linecap="round" stroke-linejoin="round"/>
<path d="M338.762 907.507C338.762 907.507 407.809 1078.68 433.429 1149.13C438.838 1164 455.71 1171.14 470.156 1164.68L612.235 1101.35" stroke="#0A174E" stroke-width="24" stroke-linecap="round" stroke-linejoin="round"/>
<path d="M735.988 229.747L807.239 63.0263C814.785 45.362 835.419 37.3752 852.915 45.362L1370.41 281.916" stroke="#0A174E" stroke-width="24" stroke-linecap="round" stroke-linejoin="round"/>
<path d="M1390.52 234.819L1476.26 92.4373" stroke="#0A174E" stroke-width="24" stroke-linecap="round" stroke-linejoin="round"/>
<path d="M1430.09 281.938L1488.79 246.677" stroke="#0A174E" stroke-width="24" stroke-linecap="round" stroke-linejoin="round"/>
<path d="M1451.87 367.301L1577.19 410.817" stroke="#0A174E" stroke-width="24" stroke-linecap="round" stroke-linejoin="round"/>
<path d="M833.641 1062.57L976.966 1133.74C992.725 1141.57 1011.82 1136.19 1021.15 1121.28C1083.32 1022.01 1303.17 657.938 1390.52 338.625" stroke="#0A174E" stroke-width="24" stroke-linecap="round" stroke-linejoin="round"/>
<path d="M1037.54 1233.16C1043.99 1231.05 1093.56 1156.92 1112.1 1125.89C1140.66 1246.07 1037.54 1233.16 1037.54 1233.16Z" stroke="#0A174E" stroke-width="24" stroke-linecap="round" stroke-linejoin="round"/>
<path d="M1156.89 717.828C1156.89 717.828 1066.31 718.584 985.313 765.325C956.021 689.351 919.271 595.846 888.977 524.655C888.977 524.655 964.702 509.193 1053.2 410.816C1053.2 410.816 1015.76 597.203 1156.89 717.828Z" fill="#E0FA15" stroke="#0A174E" stroke-width="24" stroke-linecap="round" stroke-linejoin="round"/>
<path d="M544.854 573.288C544.854 573.288 530.519 450.35 629.438 451.841C683.016 452.641 702.804 495.957 709.66 535.468C714.935 565.791 712.82 596.915 704.473 626.548L658.13 790.999L505.79 776.561C479.791 774.091 454.283 767.395 430.755 756.004C393.471 737.962 351.557 704.391 354.896 645.146C355.475 634.824 356.944 603.277 380.116 575.535C401.707 549.661 436.876 533.176 474.115 536.892C514.248 540.874 538.755 566.525 544.854 573.31V573.288Z" fill="#DA27A7" stroke="#0A174E" stroke-width="24" stroke-linecap="round" stroke-linejoin="round"/>
</svg>
