<svg width="1544" height="1756" viewBox="0 0 1544 1756" fill="none" xmlns="http://www.w3.org/2000/svg">
<path d="M647.104 524.924L615.281 689.406L692.261 629.989L723.278 730.184L794.175 565.904L768.112 558.175L720.901 545.293L676.309 533.217L647.104 524.924Z" fill="#DA27A7"/>
<path d="M468.494 789.761L444.969 842.536C441.948 849.339 444.969 857.349 451.696 860.449L537.659 900.181C544.668 903.401 552.966 900.181 555.947 893.096L582.372 830.218C585.433 822.891 581.647 814.518 574.114 812.022L485.251 782.435C478.605 780.221 471.314 783.401 468.454 789.842L468.494 789.761Z" fill="#DA27A7"/>
<path d="M269.58 933.995L199.771 821.281L185.43 912.498L35.0566 913.424L114.735 993.008L35.0566 1077.1L175.601 1072.63" stroke="#0A174E" stroke-width="24" stroke-linecap="round" stroke-linejoin="round"/>
<path d="M428.049 663.24C428.049 663.24 481.746 532.049 498.463 510.553C515.18 489.057 602.31 511.761 676.309 533.216C750.307 554.672 917.398 588.084 938.909 653.699C960.42 719.315 918.607 854.089 891.174 922.079C863.742 990.07 808.837 1037.77 708.575 1013.9C608.312 990.029 400.658 947.118 388.694 862.421C376.73 777.725 414.958 725.273 414.958 725.273" stroke="#0A174E" stroke-width="24" stroke-linecap="round" stroke-linejoin="round"/>
<path d="M917.398 1728.95C917.398 1728.95 1062.41 1728.95 1123.28 1691.39" stroke="#0A174E" stroke-width="24" stroke-linecap="round" stroke-linejoin="round"/>
<path d="M488.312 527.621C488.312 527.621 529.481 407.983 577.215 393.653C624.95 379.322 723.279 389.023 723.279 389.023" stroke="#0A174E" stroke-width="24" stroke-linecap="round" stroke-linejoin="round"/>
<path d="M944.63 689.405C944.63 689.405 955.506 573.793 944.831 534.424C934.156 495.055 824.629 428.312 824.629 428.312" stroke="#0A174E" stroke-width="24" stroke-linecap="round" stroke-linejoin="round"/>
<path d="M917.681 371.754C978.239 371.754 1027.33 322.696 1027.33 262.18C1027.33 201.664 978.239 152.606 917.681 152.606C857.124 152.606 808.033 201.664 808.033 262.18C808.033 322.696 857.124 371.754 917.681 371.754Z" fill="#E0FA15"/>
<path d="M893.955 27.051L911.881 107.561" stroke="#0A174E" stroke-width="24" stroke-linecap="round" stroke-linejoin="round"/>
<path d="M1021.08 54.7866L980.803 107.561" stroke="#0A174E" stroke-width="24" stroke-linecap="round" stroke-linejoin="round"/>
<path d="M1158.93 116.498L1021.09 169.272" stroke="#0A174E" stroke-width="24" stroke-linecap="round" stroke-linejoin="round"/>
<path d="M833.289 414.666C827.287 435.518 798.083 445.461 767.951 436.846C737.861 428.232 718.324 404.36 724.285 383.508C729.482 365.353 752.322 355.491 777.982 358.913C781.808 359.396 785.676 360.201 789.583 361.328C809.402 367.004 824.629 379.282 831.074 392.928C834.377 400.053 835.344 407.541 833.289 414.666Z" stroke="#0A174E" stroke-width="24" stroke-linecap="round" stroke-linejoin="round"/>
<path d="M985.96 279.007C985.96 344.864 932.505 398.282 866.604 398.282C854.237 398.282 842.273 396.39 831.075 392.928C824.63 379.282 809.403 367.004 789.584 361.328C785.677 360.201 781.809 359.396 777.983 358.913C758.849 337.779 747.207 309.761 747.207 279.007C747.207 213.109 800.662 159.691 866.604 159.691C932.546 159.691 985.96 213.109 985.96 279.007Z" stroke="#0A174E" stroke-width="24" stroke-linecap="round" stroke-linejoin="round"/>
<path d="M1199.66 569.406C1228.09 569.406 1251.14 546.373 1251.14 517.96C1251.14 489.547 1228.09 466.514 1199.66 466.514C1171.22 466.514 1148.18 489.547 1148.18 517.96C1148.18 546.373 1171.22 569.406 1199.66 569.406Z" fill="#DA27A7" stroke="#0A174E" stroke-width="24" stroke-linecap="round" stroke-linejoin="round"/>
<path d="M1199.66 710.741C1306.2 710.741 1392.57 624.43 1392.57 517.96C1392.57 411.49 1306.2 325.179 1199.66 325.179C1093.11 325.179 1006.74 411.49 1006.74 517.96C1006.74 624.43 1093.11 710.741 1199.66 710.741Z" stroke="#0A174E" stroke-width="24" stroke-linecap="round" stroke-linejoin="round"/>
<path d="M985.959 279.007L1203.44 466.675" stroke="#0A174E" stroke-width="24" stroke-linecap="round" stroke-linejoin="round"/>
<path d="M899.191 393.773L1148.42 522.67" stroke="#0A174E" stroke-width="24" stroke-linecap="round" stroke-linejoin="round"/>
<path d="M1283.36 1037.29C1401.51 1031.33 1508.94 1111.24 1508.94 1226.93C1508.94 1270 1503.47 1309.29 1483.2 1344.31C1423.5 1447.45 1286.87 1470.96 1209.36 1483.35C887.509 1534.8 511.837 1559.15 378.221 1566.96C359.61 1568.05 340.879 1567.81 322.349 1565.51C237.032 1554.85 163.315 1511.37 126.779 1445.03C96.4062 1389.92 98.0578 1330.34 98.1786 1323.54C101.764 1139.86 286.74 1118.4 348.815 1110.03C410.89 1101.7 1165.22 1043.25 1283.36 1037.29Z" stroke="#0A174E" stroke-width="24" stroke-linecap="round" stroke-linejoin="round"/>
<path d="M1088.32 1050.57V1011.97C1088.32 955.41 1133.8 909.399 1190.39 908.674L1287.87 907.426C1345.48 906.702 1392.57 953.156 1392.57 1010.72V1057.3" stroke="#0A174E" stroke-width="24" stroke-linecap="round" stroke-linejoin="round"/>
<path d="M364.886 1542.41C460.639 1542.41 538.261 1464.84 538.261 1369.15C538.261 1273.46 460.639 1195.89 364.886 1195.89C269.134 1195.89 191.512 1273.46 191.512 1369.15C191.512 1464.84 269.134 1542.41 364.886 1542.41Z" fill="#E0FA15"/>
<path d="M1136.74 700.234L1190.39 908.674" stroke="#0A174E" stroke-width="24" stroke-linecap="round" stroke-linejoin="round"/>
<path d="M797.478 1493.78C893.231 1493.78 970.853 1416.21 970.853 1320.52C970.853 1224.84 893.231 1147.27 797.478 1147.27C701.726 1147.27 624.104 1224.84 624.104 1320.52C624.104 1416.21 701.726 1493.78 797.478 1493.78Z" fill="#E0FA15"/>
<path d="M1296.05 684.937L1277.96 907.547" stroke="#0A174E" stroke-width="24" stroke-linecap="round" stroke-linejoin="round"/>
<path d="M1240.46 1448.81C1336.21 1448.81 1413.84 1371.24 1413.84 1275.56C1413.84 1179.87 1336.21 1102.3 1240.46 1102.3C1144.71 1102.3 1067.09 1179.87 1067.09 1275.56C1067.09 1371.24 1144.71 1448.81 1240.46 1448.81Z" fill="#E0FA15"/>
<path d="M588.131 1635.48C588.131 1635.48 946.482 1698.68 1169.69 1542.45" stroke="#0A174E" stroke-width="24" stroke-linecap="round" stroke-linejoin="round"/>
<path d="M364.886 1514.99C460.639 1514.99 538.261 1437.42 538.261 1341.74C538.261 1246.05 460.639 1168.48 364.886 1168.48C269.134 1168.48 191.512 1246.05 191.512 1341.74C191.512 1437.42 269.134 1514.99 364.886 1514.99Z" stroke="#0A174E" stroke-width="24" stroke-linecap="round" stroke-linejoin="round"/>
<path d="M803.521 1469.75C899.274 1469.75 976.896 1392.18 976.896 1296.49C976.896 1200.8 899.274 1123.23 803.521 1123.23C707.769 1123.23 630.146 1200.8 630.146 1296.49C630.146 1392.18 707.769 1469.75 803.521 1469.75Z" stroke="#0A174E" stroke-width="24" stroke-linecap="round" stroke-linejoin="round"/>
<path d="M1240.46 1423.66C1336.21 1423.66 1413.84 1346.09 1413.84 1250.4C1413.84 1154.71 1336.21 1077.14 1240.46 1077.14C1144.71 1077.14 1067.09 1154.71 1067.09 1250.4C1067.09 1346.09 1144.71 1423.66 1240.46 1423.66Z" stroke="#0A174E" stroke-width="24" stroke-linecap="round" stroke-linejoin="round"/>
<path d="M1240.46 1305.95C1271.16 1305.95 1296.05 1281.08 1296.05 1250.4C1296.05 1219.72 1271.16 1194.85 1240.46 1194.85C1209.76 1194.85 1184.87 1219.72 1184.87 1250.4C1184.87 1281.08 1209.76 1305.95 1240.46 1305.95Z" fill="#F6F5FD" stroke="#0A174E" stroke-width="24" stroke-linecap="round" stroke-linejoin="round"/>
<path d="M803.521 1360.62C838.961 1360.62 867.691 1331.91 867.691 1296.49C867.691 1261.07 838.961 1232.36 803.521 1232.36C768.081 1232.36 739.352 1261.07 739.352 1296.49C739.352 1331.91 768.081 1360.62 803.521 1360.62Z" fill="#F6F5FD" stroke="#0A174E" stroke-width="24" stroke-linecap="round" stroke-linejoin="round"/>
<path d="M364.888 1399.34C396.724 1399.34 422.532 1373.55 422.532 1341.74C422.532 1309.92 396.724 1284.13 364.888 1284.13C333.052 1284.13 307.244 1309.92 307.244 1341.74C307.244 1373.55 333.052 1399.34 364.888 1399.34Z" fill="#F6F5FD" stroke="#0A174E" stroke-width="24" stroke-linecap="round" stroke-linejoin="round"/>
</svg>
