<svg width="1749" height="1782" viewBox="0 0 1749 1782" fill="none" xmlns="http://www.w3.org/2000/svg">
<path d="M1203.79 185.761C1203.79 185.761 1278.54 117.109 1322.6 118.147C1366.66 119.184 1371.75 175.018 1322.6 188.85" stroke="#0A174E" stroke-width="24" stroke-linecap="round" stroke-linejoin="round"/>
<path d="M1162.31 144.773C1162.31 144.773 1202.24 89.4459 1256.03 57.1716" stroke="#0A174E" stroke-width="24" stroke-linecap="round" stroke-linejoin="round"/>
<path d="M1105.49 141.684C1105.49 141.684 1133.65 106.344 1133.65 86.3566C1133.65 66.3696 1112.65 38.1988 1081.41 62.2892" stroke="#0A174E" stroke-width="24" stroke-linecap="round" stroke-linejoin="round"/>
<path d="M448.727 144.773C448.727 144.773 523.595 230.046 578.991 270.228" stroke="#0A174E" stroke-width="24" stroke-linecap="round" stroke-linejoin="round"/>
<path d="M546.312 470.835L603.275 269.836C606.432 258.724 616.11 250.725 627.609 249.733L1133.62 205.702L1256 287.633L741.075 353.057C730.613 354.394 721.811 361.518 718.331 371.477L655.054 552.673C651.459 563.001 636.873 563.047 633.186 552.743L598.782 456.289L589.91 448.197L546.266 470.881L546.312 470.835Z" fill="#E0FA15"/>
<path d="M701.648 376.871C701.648 376.871 847.56 500.989 888.439 512.262C929.318 523.535 1369.7 452.831 1422.96 434.388" stroke="#0A174E" stroke-width="24" stroke-linecap="round" stroke-linejoin="round"/>
<path d="M875.654 558.344C875.654 558.344 834.084 624.968 808.483 721.26C782.881 817.553 716.309 1072.68 716.309 1072.68" stroke="#0A174E" stroke-width="24" stroke-linecap="round" stroke-linejoin="round"/>
<path d="M1251.65 857.043L1233.82 921.245C1230.82 932.034 1221.77 940.057 1210.71 941.739L1020 970.671C1000.25 973.668 983.659 955.894 987.991 936.391L1002.88 869.215C1005.46 857.573 1015.02 848.767 1026.84 847.199L1220.5 821.241C1240.71 818.521 1257.12 837.378 1251.65 857.043Z" fill="#DA27A7"/>
<path d="M810.809 1571.92C1114.73 1571.92 1361.11 1476.51 1361.11 1358.82C1361.11 1241.12 1114.73 1145.71 810.809 1145.71C506.886 1145.71 260.508 1241.12 260.508 1358.82C260.508 1476.51 506.886 1571.92 810.809 1571.92Z" fill="#E0FA15"/>
<path d="M317.842 512.746C300.421 566.021 286.088 646.983 292.24 703.325C297.955 755.632 573.993 990.151 691.929 1059.26C701.032 1064.61 709.212 1068.97 716.24 1072.17C738.938 1082.55 821.157 1075.38 915.682 1059.47C1064.15 1034.44 1242.99 987.754 1269.28 953.312C1300.25 912.762 1438.26 499.444 1422.91 433.858C1407.54 368.295 989.697 110.77 963.059 103.946C936.421 97.1223 494.677 110.77 455.757 137.419C416.836 164.045 343.789 416.107 343.789 416.107" stroke="#0A174E" stroke-width="24" stroke-linecap="round" stroke-linejoin="round"/>
<path d="M90.2663 1151.75C116.992 1151.75 138.658 1130.08 138.658 1103.34C138.658 1076.6 116.992 1054.93 90.2663 1054.93C63.5405 1054.93 41.875 1076.6 41.875 1103.34C41.875 1130.08 63.5405 1151.75 90.2663 1151.75Z" fill="#DA27A7"/>
<path d="M1117.56 195.397L601.064 252.2C590.787 253.33 582.145 260.384 578.988 270.228L515.02 469.014C512.301 477.474 521.38 484.898 529.122 480.517L584.404 449.373C590.28 446.053 597.677 449.58 598.829 456.22L615.051 550.207C616.734 559.981 630.214 561.318 633.786 552.074L703.677 371.592C707.041 362.878 714.807 356.63 724.024 355.155L1236.79 274.193" stroke="#0A174E" stroke-width="24" stroke-linecap="round" stroke-linejoin="round"/>
<path d="M1653.09 1160.86C1679.82 1160.86 1701.48 1139.18 1701.48 1112.45C1701.48 1085.71 1679.82 1064.04 1653.09 1064.04C1626.36 1064.04 1604.7 1085.71 1604.7 1112.45C1604.7 1139.18 1626.36 1160.86 1653.09 1160.86Z" fill="#DA27A7"/>
<path d="M915.68 1059.47C1165.42 1079.64 1353 1165.38 1353 1268.06C1353 1312.89 1317.24 1354.5 1256.12 1388.83" stroke="#0A174E" stroke-width="24" stroke-linecap="round" stroke-linejoin="round"/>
<path d="M691.925 1059.26C441.097 1079.11 252.371 1165.05 252.371 1268.06C252.371 1385.76 498.752 1481.18 802.672 1481.18C920.678 1481.18 1030 1466.8 1119.59 1442.31" stroke="#0A174E" stroke-width="24" stroke-linecap="round" stroke-linejoin="round"/>
<path d="M837.747 1734.37C875.431 1734.37 905.979 1703.81 905.979 1666.11C905.979 1628.41 875.431 1597.85 837.747 1597.85C800.064 1597.85 769.516 1628.41 769.516 1666.11C769.516 1703.81 800.064 1734.37 837.747 1734.37Z" fill="#DA27A7"/>
<path d="M76.0436 1176C102.769 1176 124.435 1154.33 124.435 1127.59C124.435 1100.86 102.769 1079.18 76.0436 1079.18C49.3179 1079.18 27.6523 1100.86 27.6523 1127.59C27.6523 1154.33 49.3179 1176 76.0436 1176Z" stroke="#0A174E" stroke-width="24" stroke-linecap="round" stroke-linejoin="round"/>
<path d="M1673.77 1174.37C1700.49 1174.37 1722.16 1152.69 1722.16 1125.96C1722.16 1099.22 1700.49 1077.55 1673.77 1077.55C1647.04 1077.55 1625.38 1099.22 1625.38 1125.96C1625.38 1152.69 1647.04 1174.37 1673.77 1174.37Z" stroke="#0A174E" stroke-width="24" stroke-linecap="round" stroke-linejoin="round"/>
<path d="M800.556 1729.02C838.239 1729.02 868.788 1698.46 868.788 1660.76C868.788 1623.07 838.239 1592.5 800.556 1592.5C762.873 1592.5 732.324 1623.07 732.324 1660.76C732.324 1698.46 762.873 1729.02 800.556 1729.02Z" stroke="#0A174E" stroke-width="24" stroke-linecap="round" stroke-linejoin="round"/>
<path d="M1352.98 1268.06H1535.18C1561.87 1268.06 1586.68 1254.25 1600.74 1231.54L1642.98 1163.33" stroke="#0A174E" stroke-width="24" stroke-linecap="round" stroke-linejoin="round"/>
<path d="M802.675 1481.16L800.555 1592.53" stroke="#0A174E" stroke-width="24" stroke-linecap="round" stroke-linejoin="round"/>
<path d="M95.4961 1171.92L150.8 1253.28H253.183" stroke="#0A174E" stroke-width="24" stroke-linecap="round" stroke-linejoin="round"/>
<path d="M267.555 926.433L320.117 1099.93" stroke="#0A174E" stroke-width="24" stroke-linecap="round" stroke-linejoin="round"/>
<path d="M373.375 926.433L402.064 1035.04" stroke="#0A174E" stroke-width="24" stroke-linecap="round" stroke-linejoin="round"/>
<path d="M1318.84 989.621C1318.84 989.621 1299.9 1073.12 1300.41 1106.43" stroke="#0A174E" stroke-width="24" stroke-linecap="round" stroke-linejoin="round"/>
<path d="M1401.3 1022.4L1366.48 1171.99" stroke="#0A174E" stroke-width="24" stroke-linecap="round" stroke-linejoin="round"/>
</svg>
