<svg width="1886" height="1886" viewBox="0 0 1886 1886" fill="none" xmlns="http://www.w3.org/2000/svg">
<path d="M395.271 1412.98C578.974 1412.98 727.894 1263.95 727.894 1080.11C727.894 896.265 578.974 747.231 395.271 747.231C211.569 747.231 62.6484 896.265 62.6484 1080.11C62.6484 1263.95 211.569 1412.98 395.271 1412.98Z" fill="#E0FA15"/>
<path d="M1370.07 960.322C1620.58 960.322 1823.65 757.092 1823.65 506.396C1823.65 255.7 1620.58 52.4702 1370.07 52.4702C1119.57 52.4702 916.492 255.7 916.492 506.396C916.492 757.092 1119.57 960.322 1370.07 960.322Z" fill="#E0FA15"/>
<path d="M414.73 1097.09C477.917 1097.09 529.14 1045.83 529.14 982.591C529.14 919.356 477.917 868.094 414.73 868.094C351.543 868.094 300.32 919.356 300.32 982.591C300.32 1045.83 351.543 1097.09 414.73 1097.09Z" fill="#DA27A7"/>
<path d="M1140.21 1591.84C1189.56 1591.84 1229.56 1551.8 1229.56 1502.41C1229.56 1453.03 1189.56 1412.99 1140.21 1412.99C1090.86 1412.99 1050.85 1453.03 1050.85 1502.41C1050.85 1551.8 1090.86 1591.84 1140.21 1591.84Z" fill="#0A174E"/>
<path d="M1339.51 598.629C1421.97 598.629 1488.83 531.728 1488.83 449.2C1488.83 366.673 1421.97 299.771 1339.51 299.771C1257.05 299.771 1190.2 366.673 1190.2 449.2C1190.2 531.728 1257.05 598.629 1339.51 598.629Z" fill="#DA27A7"/>
<path d="M613.996 1310.68C613.996 1312.01 613.996 1313.33 613.933 1314.62C558.412 1356.26 489.451 1380.93 414.73 1380.93C340.01 1380.93 271.018 1356.26 215.497 1314.59C215.434 1313.3 215.434 1311.98 215.434 1310.68C215.434 1206.83 304.664 1122.67 414.73 1122.67C524.797 1122.67 613.996 1206.83 613.996 1310.68Z" fill="#DA27A7"/>
<path d="M1292.9 1752.07C1292.9 1759.67 1292.27 1767.13 1291.07 1774.41C1248.36 1804.36 1196.33 1821.91 1140.25 1821.91C1084.16 1821.91 1032.1 1804.36 989.388 1774.41C988.192 1767.13 987.562 1759.67 987.562 1752.07C987.562 1672.51 1055.93 1608.03 1140.25 1608.03C1224.57 1608.03 1292.9 1672.51 1292.9 1752.07Z" fill="#0A174E"/>
<path d="M1599.59 877.296C1599.59 883.532 1599.33 889.675 1598.86 895.785C1522.25 954.971 1426.19 990.187 1321.95 990.187C1234.67 990.187 1153.09 965.492 1083.91 922.717C1080.98 908.007 1079.44 892.824 1079.44 877.296C1079.44 741.789 1195.89 631.953 1339.51 631.953C1483.13 631.953 1599.59 741.789 1599.59 877.296Z" fill="#DA27A7"/>
<path d="M895.085 1461.81L649.93 1283.4" stroke="#0A174E" stroke-width="24" stroke-linecap="round" stroke-linejoin="round"/>
<path d="M1208.73 1303.78L1218.26 978.245" stroke="#0A174E" stroke-width="24" stroke-linecap="round" stroke-linejoin="round"/>
<path d="M676.336 842.43L901.127 705.916" stroke="#0A174E" stroke-width="24" stroke-linecap="round" stroke-linejoin="round"/>
<path d="M1441.2 1335.63C1441.2 1335.63 1609.05 1493.69 1527.94 1714.94" stroke="#0A174E" stroke-width="24" stroke-linecap="round" stroke-linejoin="round"/>
<path d="M1569.89 1303.78C1569.89 1303.78 1651.03 1330.05 1646.81 1432.24" stroke="#0A174E" stroke-width="24" stroke-linecap="round" stroke-linejoin="round"/>
<path d="M804.258 323.484C804.258 323.484 679.304 153.612 578.586 290.82" stroke="#0A174E" stroke-width="24" stroke-linecap="round" stroke-linejoin="round"/>
<path d="M905.879 208.696C905.879 208.696 859.266 111.649 947.835 86.45" stroke="#0A174E" stroke-width="24" stroke-linecap="round" stroke-linejoin="round"/>
<path d="M842.504 248.828L769.734 115.368" stroke="#0A174E" stroke-width="24" stroke-linecap="round" stroke-linejoin="round"/>
<path d="M1321.95 990.156C1572.45 990.156 1775.53 786.927 1775.53 536.23C1775.53 285.534 1572.45 82.3044 1321.95 82.3044C1071.44 82.3044 868.367 285.534 868.367 536.23C868.367 786.927 1071.44 990.156 1321.95 990.156Z" stroke="#0A174E" stroke-width="24" stroke-linecap="round" stroke-linejoin="round"/>
<path d="M414.721 1380.89C598.423 1380.89 747.343 1231.86 747.343 1048.01C747.343 864.172 598.423 715.138 414.721 715.138C231.018 715.138 82.0977 864.172 82.0977 1048.01C82.0977 1231.86 231.018 1380.89 414.721 1380.89Z" stroke="#0A174E" stroke-width="24" stroke-linecap="round" stroke-linejoin="round"/>
<path d="M1140.21 1821.91C1285.67 1821.91 1403.59 1703.9 1403.59 1558.33C1403.59 1412.75 1285.67 1294.75 1140.21 1294.75C994.747 1294.75 876.828 1412.75 876.828 1558.33C876.828 1703.9 994.747 1821.91 1140.21 1821.91Z" stroke="#0A174E" stroke-width="24" stroke-linecap="round" stroke-linejoin="round"/>
</svg>
